<svg width="415" height="412" viewBox="0 0 415 412" fill="none" xmlns="http://www.w3.org/2000/svg">
<path fill-rule="evenodd" clip-rule="evenodd" d="M139.957 7.42783C137.465 11.5117 133.093 23.4429 130.242 33.939C124.113 56.4935 113.727 111.043 115.129 113.303C117.547 117.208 158.318 121.362 194.194 121.362C232.949 121.362 262.741 117.5 262.741 112.473C262.741 106.789 249.994 49.1693 244.673 30.8048C234.698 -3.62672 230.711 -6.12937 211.882 10.2345C188.923 30.1826 184.063 30.4749 166.499 12.961C159.349 5.83245 151.47 0 148.993 0C146.474 0 142.491 3.27324 139.957 7.42783Z" fill="url(#paint0_linear)"/>
<path fill-rule="evenodd" clip-rule="evenodd" d="M143.957 14.4278C141.465 18.5117 137.093 30.4429 134.242 40.939C128.113 63.4935 117.727 118.043 119.129 120.303C121.547 124.208 162.318 128.362 198.194 128.362C207.588 128.362 216.456 128.135 224.5 127.72C249.642 126.421 266.741 123.281 266.741 119.473C266.741 113.789 253.994 56.1693 248.673 37.8048C242.956 18.0695 239.206 8.82376 233.5 7.60795C229.251 6.70259 223.918 10.25 215.882 17.2345C192.923 37.1826 188.063 37.4749 170.499 19.961C163.349 12.8325 155.47 7 152.993 7C150.474 7 146.491 10.2732 143.957 14.4278Z" fill="url(#paint1_linear)"/>
<path d="M248.673 37.8047C253.994 56.1693 266.741 113.789 266.741 119.473C266.741 122.695 254.498 125.439 235.5 126.994C246 77 246 37.8047 233.5 7.60791C239.206 8.82372 242.956 18.0694 248.673 37.8047Z" fill="url(#paint2_linear)"/>
<path d="M0.00612618 262.559C-0.312972 262.241 11.8742 251.198 27.0893 238.018C56.938 212.155 57.3635 211.98 81.3313 215.784C91.0177 217.32 91.6819 217.994 100.274 235.051C114.735 263.761 131.316 286.603 155.206 310.729C167.556 323.2 180.153 335.039 183.197 337.035C188.544 340.542 188.634 341.107 185.818 353.651C184.216 360.794 182.143 367.866 181.212 369.367C180.051 371.238 167.337 366.014 140.771 352.749C119.46 342.107 93.3791 330.067 82.8134 325.993L63.6013 318.584L81.2132 303.619C90.8996 295.39 97.9363 287.769 96.849 286.685C93.8447 283.69 38.1727 268.948 18.2113 265.861C8.51542 264.362 0.322861 262.875 0.00612618 262.559Z" fill="url(#paint3_linear)"/>
<path d="M8.00613 261.589C7.68703 261.271 19.8742 250.228 35.0893 237.048C64.938 211.185 65.3635 211.01 89.3313 214.814C99.0177 216.35 99.6819 217.024 108.274 234.081C122.735 262.791 139.316 285.633 163.206 309.759C175.556 322.23 188.153 334.069 191.197 336.065C196.544 339.572 196.634 340.137 193.818 352.681C192.216 359.824 190.143 366.896 189.212 368.397C188.051 370.268 175.337 365.044 148.771 351.779C127.46 341.136 101.379 329.097 90.8134 325.022L71.6013 317.613L89.2132 302.649C98.8996 294.42 105.936 286.799 104.849 285.715C101.845 282.72 46.1727 267.977 26.2113 264.89C16.5154 263.392 8.32286 261.905 8.00613 261.589Z" fill="url(#paint4_linear)"/>
<path d="M142.882 248.657C124.615 245.24 114 234.826 114 220.319C114 214.282 114.21 214.204 125.228 216.08C139.443 218.5 246.549 218.592 259.958 216.195C269.63 214.468 270.004 214.626 270.004 220.437C270.004 234.826 259.334 245.252 241.122 248.657C229.128 250.9 218.137 246.663 207.33 235.628C195.273 223.317 188.731 223.317 176.673 235.628C165.867 246.663 154.875 250.9 142.882 248.657Z" fill="url(#paint5_linear)"/>
<path d="M147.178 251.786C128.911 248.369 118.296 237.955 118.296 223.448C118.296 217.411 118.506 217.333 129.523 219.209C143.739 221.629 250.845 221.721 264.254 219.324C273.926 217.597 274.3 217.755 274.3 223.566C274.3 237.955 263.63 248.381 245.418 251.786C233.424 254.029 222.433 249.792 211.626 238.756C199.569 226.446 193.026 226.446 180.969 238.756C170.162 249.792 159.171 254.029 147.178 251.786Z" fill="url(#paint6_linear)"/>
<path d="M274.3 223.566C274.3 237.955 263.63 248.38 245.418 251.786C240.46 252.713 235.673 252.533 231 251.223C242 247.5 256.5 241.5 273.746 219.324C274.252 220.128 274.3 221.484 274.3 223.566Z" fill="url(#paint7_linear)"/>
<path d="M180.969 238.756C170.163 249.792 155.5 257.5 136 248.5C167 241 180 231 192.5 221.063C187.5 233 184.145 234.961 180.969 238.756Z" fill="url(#paint8_linear)"/>
<path d="M305.132 215.2L321.838 212.961C331.026 211.731 339.741 210.857 341.206 211.019C342.672 211.182 359.806 222.444 379.283 236.044L414.696 260.769L377.801 268.046C333.354 276.812 300.371 287.167 304.337 291.111C304.95 291.722 314.381 296.524 325.296 301.787C336.212 307.049 343.657 311.821 341.842 312.393C340.027 312.966 330.617 315.737 320.93 318.553C289.143 327.797 259.391 345.347 236.696 367.472C226.176 377.728 217.172 388.967 210.184 400.818L203.812 411.623L203.093 397.738C201.117 359.555 230.675 308.267 278.06 267.666L299.366 249.408L302.25 232.304L305.132 215.2Z" fill="url(#paint9_linear)"/>
<path d="M300.09 215.087L313.142 213.338C322.33 212.108 331.045 211.234 332.51 211.396C333.976 211.559 351.11 222.821 370.587 236.421L406 261.145L369.105 268.422C324.658 277.189 291.675 287.543 295.642 291.488C296.254 292.099 305.685 296.901 316.6 302.164C327.516 307.426 334.962 312.198 333.146 312.77C331.331 313.343 321.921 316.114 312.235 318.93C280.447 328.174 250.695 345.724 228 367.849C217.48 378.105 208.476 389.344 201.489 401.195L195.116 412L194.397 398.115C192.421 359.932 221.979 308.644 269.364 268.043L285.443 254.264C288.821 251.37 291.076 247.382 291.815 242.996L293.554 232.681L295.823 219.212C296.187 217.051 297.917 215.378 300.09 215.087Z" fill="url(#paint10_linear)"/>
<path d="M5.92993 166.454C9.18946 160.383 34.4763 150.476 72.6523 140.315C91.2072 135.378 108.514 131.886 111.114 132.555C113.714 133.224 121.16 135.253 127.66 137.061C164.104 147.196 243.063 144.939 266.425 133.095C274.864 128.815 358.165 152.428 371.206 162.794C377.273 167.618 377.687 168.718 374.753 172.239C366.211 182.502 331.361 192.852 277.755 201.05C239.675 206.873 141.367 206.935 102.841 201.159C37.8729 191.417 -0.158944 177.798 5.92993 166.454Z" fill="url(#paint11_linear)"/>
<path d="M11.9299 170.454C15.1895 164.383 40.4763 154.476 78.6523 144.315C97.2072 139.378 114.514 135.886 117.114 136.555C119.714 137.224 127.16 139.253 133.66 141.061C170.104 151.196 249.063 148.939 272.425 137.095C280.864 132.815 364.165 156.428 377.206 166.794C383.273 171.618 383.687 172.718 380.753 176.239C372.211 186.502 337.361 196.852 283.755 205.05C245.675 210.873 147.367 210.935 108.841 205.159C43.8729 195.417 5.84106 181.798 11.9299 170.454Z" fill="url(#paint12_linear)"/>
<path d="M283.755 205.05C245.676 210.873 147.367 210.935 108.841 205.159C70.1033 199.35 40.942 192.163 25 184.902C201.5 220 332.5 188 359.501 158.297C367.84 161.486 374.285 164.472 377.206 166.794C383.273 171.618 383.688 172.718 380.754 176.239C372.212 186.502 337.361 196.852 283.755 205.05Z" fill="url(#paint13_linear)"/>
<path d="M189.212 368.397C188.051 370.268 175.337 365.043 148.771 351.778C134.568 315.228 102.796 236.664 89.3313 214.813C99.0177 216.35 99.6819 217.024 108.274 234.081C122.735 262.79 139.316 285.632 163.206 309.759C175.556 322.23 188.153 334.069 191.197 336.065C196.544 339.571 196.633 340.137 193.818 352.681C192.216 359.824 190.143 366.896 189.212 368.397Z" fill="url(#paint14_linear)"/>
<path d="M194.397 398.115C192.421 359.932 221.979 308.644 269.364 268.043L284.585 255C268.723 277.9 235.2 332.529 228 367.85C217.48 378.105 208.476 389.344 201.489 401.195L195.116 412L194.397 398.115Z" fill="url(#paint15_linear)"/>
<defs>
<linearGradient id="paint0_linear" x1="202.143" y1="138.247" x2="126.408" y2="91.6752" gradientUnits="userSpaceOnUse">
<stop stop-color="#25B3A7" stop-opacity="0.08"/>
<stop offset="1" stop-color="#055F66"/>
</linearGradient>
<linearGradient id="paint1_linear" x1="233.94" y1="20.9876" x2="156.332" y2="114.982" gradientUnits="userSpaceOnUse">
<stop stop-color="#20BEB6"/>
<stop offset="1" stop-color="#00FFBF"/>
<stop offset="1" stop-color="#20BEB6"/>
</linearGradient>
<linearGradient id="paint2_linear" x1="248" y1="18" x2="262.636" y2="124.599" gradientUnits="userSpaceOnUse">
<stop stop-color="#1BCAB8"/>
<stop offset="1" stop-color="#02FBBF"/>
</linearGradient>
<linearGradient id="paint3_linear" x1="110.685" y1="391.402" x2="13.9514" y2="332.524" gradientUnits="userSpaceOnUse">
<stop stop-color="#25B3A7" stop-opacity="0.08"/>
<stop offset="1" stop-color="#055F66"/>
</linearGradient>
<linearGradient id="paint4_linear" x1="35.5" y1="230.5" x2="119.5" y2="301.5" gradientUnits="userSpaceOnUse">
<stop stop-color="#20BEB6"/>
<stop offset="1" stop-color="#00FFBF"/>
<stop offset="1" stop-color="#20BEB6"/>
</linearGradient>
<linearGradient id="paint5_linear" x1="206.017" y1="254.001" x2="188.516" y2="213.721" gradientUnits="userSpaceOnUse">
<stop stop-color="#25B3A7" stop-opacity="0.08"/>
<stop offset="1" stop-color="#055F66"/>
</linearGradient>
<linearGradient id="paint6_linear" x1="239.664" y1="222.075" x2="230.284" y2="264.6" gradientUnits="userSpaceOnUse">
<stop stop-color="#20BEB6"/>
<stop offset="1" stop-color="#00FFBF"/>
<stop offset="1" stop-color="#20BEB6"/>
</linearGradient>
<linearGradient id="paint7_linear" x1="268.5" y1="232.5" x2="246.361" y2="244.103" gradientUnits="userSpaceOnUse">
<stop stop-color="#1BCAB8"/>
<stop offset="1" stop-color="#02FBBF"/>
</linearGradient>
<linearGradient id="paint8_linear" x1="172" y1="241" x2="138.372" y2="269.85" gradientUnits="userSpaceOnUse">
<stop stop-color="#1BCAB8"/>
<stop offset="1" stop-color="#02FBBF"/>
</linearGradient>
<linearGradient id="paint9_linear" x1="327.866" y1="439.534" x2="211.399" y2="377.457" gradientUnits="userSpaceOnUse">
<stop stop-color="#25B3A7" stop-opacity="0.08"/>
<stop offset="1" stop-color="#055F66"/>
</linearGradient>
<linearGradient id="paint10_linear" x1="377.5" y1="218.5" x2="267" y2="352.5" gradientUnits="userSpaceOnUse">
<stop stop-color="#20BEB6"/>
<stop offset="1" stop-color="#00FFBF"/>
<stop offset="1" stop-color="#20BEB6"/>
</linearGradient>
<linearGradient id="paint11_linear" x1="224.258" y1="215.608" x2="189.758" y2="126.964" gradientUnits="userSpaceOnUse">
<stop stop-color="#25B3A7" stop-opacity="0.08"/>
<stop offset="1" stop-color="#055F66"/>
</linearGradient>
<linearGradient id="paint12_linear" x1="300.103" y1="144.884" x2="276.745" y2="226.811" gradientUnits="userSpaceOnUse">
<stop stop-color="#20BEB6"/>
<stop offset="1" stop-color="#00FFBF"/>
<stop offset="1" stop-color="#20BEB6"/>
</linearGradient>
<linearGradient id="paint13_linear" x1="96.4994" y1="196.5" x2="567.999" y2="175.5" gradientUnits="userSpaceOnUse">
<stop stop-color="#1BCAB8"/>
<stop offset="1" stop-color="#02FBBF"/>
</linearGradient>
<linearGradient id="paint14_linear" x1="142.522" y1="218.093" x2="139.19" y2="375.124" gradientUnits="userSpaceOnUse">
<stop stop-color="#1BCAB8"/>
<stop offset="1" stop-color="#02FBBF"/>
</linearGradient>
<linearGradient id="paint15_linear" x1="239.469" y1="258.345" x2="235.39" y2="418.454" gradientUnits="userSpaceOnUse">
<stop stop-color="#1BCAB8"/>
<stop offset="1" stop-color="#02FBBF"/>
</linearGradient>
</defs>
</svg>
