<svg width="214" height="244" viewBox="0 0 214 244" fill="none" xmlns="http://www.w3.org/2000/svg">
<path fill-rule="evenodd" clip-rule="evenodd" d="M115.889 164.89C113.78 166.998 110.92 168.183 107.937 168.183C104.955 168.183 102.094 166.998 99.9856 164.89C97.8767 162.781 96.6919 159.92 96.6919 156.938C96.6919 153.956 97.8767 151.095 99.9856 148.986C102.094 146.878 104.955 145.693 107.937 145.693C110.92 145.693 113.78 146.878 115.889 148.986C117.998 151.095 119.182 153.956 119.182 156.938C119.182 159.92 117.998 162.781 115.889 164.89ZM123.84 192.065C119.622 194.174 113.902 195.359 107.937 195.359C101.972 195.359 96.2517 194.174 92.034 192.065C87.8162 189.957 85.4467 187.096 85.4467 184.114C85.4467 181.131 87.8162 178.271 92.034 176.162C96.2517 174.053 101.972 172.869 107.937 172.869C113.902 172.869 119.622 174.053 123.84 176.162C128.058 178.271 130.428 181.131 130.428 184.114C130.428 187.096 128.058 189.957 123.84 192.065Z" fill="url(#paint0_linear_335_601)"/>
<path fill-rule="evenodd" clip-rule="evenodd" d="M190.753 106.547H27.2933L23.2848 106.547C10.6799 106.547 0.453369 116.793 0.453369 129.422V221.125C0.453369 233.754 10.6799 244 23.2848 244H190.715C203.32 244 213.547 233.754 213.547 221.125V129.422C213.547 116.805 203.34 106.567 190.753 106.547ZM34.7005 100.853H72.7529V72.4375C72.7529 53.518 88.1165 38.125 107 38.125C125.884 38.125 141.247 53.518 141.247 72.4375V100.853H179.3V72.4375C179.3 32.5016 146.86 0 107 0C67.1402 0 34.7005 32.5016 34.7005 72.4375V100.853ZM66.8574 139.154C67.9946 137.815 69.4966 136.816 71.1907 136.271C77.0729 134.392 83.0007 132.652 88.9691 131.052C95.6507 129.283 102.751 127.693 107 127.693C111.249 127.693 118.349 129.283 125.031 131.052C131.866 132.852 138.757 134.981 142.809 136.271C144.503 136.816 146.005 137.815 147.143 139.154C148.28 140.493 149.006 142.118 149.238 143.841C152.909 170.695 144.392 190.598 134.059 203.764C129.677 209.397 124.452 214.356 118.559 218.478C116.521 219.904 114.362 221.159 112.105 222.227C110.381 223.019 108.527 223.667 107 223.667C105.473 223.667 103.625 223.019 101.895 222.227C99.6381 221.159 97.479 219.904 95.4413 218.478C89.5481 214.356 84.3233 209.396 79.9414 203.764C69.6081 190.598 61.0914 170.695 64.7617 143.841C64.9937 142.118 65.7201 140.493 66.8574 139.154Z" fill="url(#paint1_linear_335_601)"/>
<defs>
<linearGradient id="paint0_linear_335_601" x1="85.3017" y1="195.22" x2="134.704" y2="150.478" gradientUnits="userSpaceOnUse">
<stop stop-color="#F42929"/>
<stop offset="0.494792" stop-color="#FF8A3F"/>
<stop offset="1" stop-color="#E5E938"/>
</linearGradient>
<linearGradient id="paint1_linear_335_601" x1="-0.233505" y1="243.318" x2="241.443" y2="32.2538" gradientUnits="userSpaceOnUse">
<stop stop-color="#F42929"/>
<stop offset="0.494792" stop-color="#FF8A3F"/>
<stop offset="1" stop-color="#E5E938"/>
</linearGradient>
</defs>
</svg>
