<svg width="269" height="201" viewBox="0 0 269 201" fill="none" xmlns="http://www.w3.org/2000/svg">
<mask id="path-1-inside-1_335_602" fill="white">
<path fill-rule="evenodd" clip-rule="evenodd" d="M241.023 49.5365C241.654 48.368 242.215 47.1623 242.701 45.9261C243.1 44.8538 243.443 43.7616 243.729 42.654C245.641 46.2695 247.452 49.922 249.159 53.6123L246.937 69.2743C243.345 70.7651 239.964 72.7185 236.879 75.0848L221.967 69.1C221.31 68.8331 220.577 68.8158 219.908 69.0512C219.239 69.2867 218.679 69.7587 218.334 70.3783L206.416 91.0347C206.047 91.6473 205.917 92.3743 206.052 93.0764C206.186 93.7786 206.574 94.4067 207.142 94.8406L219.7 104.689C219.448 106.616 219.312 108.557 219.293 110.5C219.311 112.443 219.447 114.384 219.7 116.311L207.142 126.159C206.574 126.593 206.186 127.221 206.052 127.924C205.917 128.626 206.047 129.353 206.416 129.965L218.334 150.622C218.679 151.241 219.239 151.713 219.908 151.949C220.577 152.184 221.31 152.167 221.967 151.9L236.821 145.915C239.912 148.273 243.292 150.226 246.879 151.726L249.117 167.501C249.216 168.199 249.565 168.838 250.1 169.297C250.635 169.757 251.318 170.007 252.024 170H264.225C244.69 183.652 223.081 194.108 200.214 200.964C200.044 201.015 199.862 201.012 199.694 200.956C199.525 200.9 199.378 200.794 199.273 200.651C194.195 193.717 189.578 186.415 185.543 178.744C185.488 178.638 185.456 178.522 185.45 178.403C185.443 178.284 185.463 178.165 185.506 178.054C185.55 177.943 185.616 177.842 185.702 177.759C185.788 177.676 185.89 177.612 186.002 177.571C193.321 174.869 200.293 171.62 206.995 167.779C207.114 167.708 207.214 167.609 207.286 167.49C207.358 167.372 207.399 167.237 207.405 167.099C207.412 166.961 207.384 166.823 207.324 166.698C207.264 166.573 207.174 166.465 207.062 166.383C205.639 165.345 204.238 164.261 202.893 163.167C202.769 163.069 202.621 163.008 202.465 162.99C202.308 162.973 202.15 162.999 202.007 163.067C158.509 182.763 110.841 182.763 66.8275 163.067C66.6857 163.003 66.5289 162.98 66.3746 162.999C66.2202 163.019 66.0744 163.081 65.9533 163.178C64.6083 164.261 63.1961 165.345 61.7839 166.383C61.6729 166.467 61.5843 166.576 61.5263 166.702C61.4683 166.828 61.4425 166.967 61.4514 167.105C61.4603 167.243 61.5035 167.377 61.5772 167.495C61.6509 167.612 61.7527 167.71 61.8736 167.779C68.5994 171.588 75.6147 174.866 82.855 177.582C82.967 177.622 83.0693 177.685 83.1548 177.767C83.2403 177.849 83.3071 177.949 83.3507 178.059C83.3943 178.169 83.4136 178.287 83.4073 178.405C83.4011 178.523 83.3694 178.639 83.3145 178.744C79.3569 186.42 74.7605 193.751 69.5735 200.662C69.4641 200.8 69.3157 200.901 69.1477 200.952C68.9798 201.004 68.8001 201.004 68.632 200.953C44.5274 193.693 21.8206 182.444 1.46243 167.678C1.36573 167.605 1.28505 167.512 1.22532 167.407C1.16559 167.301 1.12805 167.185 1.11498 167.064C-3.58118 117.867 5.97926 68.0446 40.8586 16.9605C40.9445 16.8259 41.0696 16.7207 41.2172 16.659C58.3767 8.94336 76.7578 3.24873 95.9684 0.0106085C96.1418 -0.0167803 96.3194 0.00916349 96.4776 0.0849761C96.6358 0.160789 96.767 0.282865 96.8538 0.434915C99.4131 4.88146 101.722 9.4666 103.769 14.169C124.155 11.1345 144.881 11.1345 165.267 14.169C167.106 9.92596 169.728 4.55514 172.082 0.434915C172.169 0.284714 172.302 0.165338 172.46 0.0933193C172.619 0.0213004 172.796 0.000201898 172.967 0.0329414C178.4 0.94815 183.766 2.05959 189.055 3.35718L182.56 8.65772C182.176 8.95926 181.916 9.39181 181.83 9.87262C181.743 10.3534 181.836 10.8487 182.091 11.2638L187.654 20.6015C187.023 21.7703 186.462 22.976 185.975 24.2119C185.512 25.4568 185.124 26.7285 184.814 28.02L174.438 31.2566C173.971 31.3955 173.571 31.7021 173.315 32.1178C173.058 32.5335 172.963 33.029 173.047 33.5096L175.562 49.5912C175.63 50.0706 175.87 50.5079 176.237 50.8208C176.605 51.1337 177.074 51.3006 177.556 51.2899L188.445 51.0778C189.83 53.3337 191.498 55.4014 193.408 57.2303L190.973 67.8447C190.866 68.3143 190.931 68.8066 191.158 69.23C191.385 69.6534 191.758 69.9789 192.208 70.1458L207.334 75.9362C207.78 76.112 208.275 76.1188 208.727 75.9552C209.179 75.7917 209.557 75.469 209.79 75.0474L215.065 65.5206C217.709 65.4413 220.332 65.0158 222.868 64.2546L230.832 71.6836C231.184 72.0136 231.644 72.2026 232.127 72.2149C232.609 72.2272 233.08 72.0619 233.45 71.7502L246.061 61.4591C246.445 61.1576 246.705 60.725 246.791 60.2442C246.878 59.7634 246.785 59.2681 246.53 58.853L241.023 49.5365ZM262.146 89.7201C265.598 102.957 267.789 116.653 268.621 130.841C267.108 131.185 265.558 131.36 264 131.36C259.871 131.366 255.833 130.147 252.397 127.858C248.961 125.57 246.281 122.314 244.697 118.503C243.113 114.692 242.695 110.497 243.497 106.448C244.299 102.4 246.285 98.6804 249.203 95.7602C252.12 92.84 255.839 90.8504 259.888 90.0432C260.637 89.8939 261.391 89.7864 262.146 89.7201ZM209.25 48.3887C206.628 47.3893 204.363 45.6305 202.742 43.3348C201.121 41.0391 200.216 38.3097 200.142 35.492C200.068 32.6743 200.828 29.8949 202.326 27.5054C203.824 25.1159 205.993 23.2238 208.559 22.0685C211.124 20.9131 213.97 20.5464 216.737 21.0148C219.504 21.4832 222.068 22.7656 224.103 24.6998C226.139 26.634 227.556 29.133 228.173 31.8807C228.791 34.6284 228.583 37.5012 227.574 40.1357C226.908 41.8844 225.905 43.4853 224.623 44.8467C223.341 46.2082 221.805 47.3035 220.103 48.07C218.401 48.8365 216.566 49.2592 214.704 49.3139C212.842 49.3686 210.989 49.0542 209.25 48.3887ZM65.7179 110.531C65.7179 125.17 76.6458 137.106 89.8936 137.106C103.354 137.106 114.069 125.181 114.069 110.531C114.282 95.9818 103.455 83.9561 89.8936 83.9561C76.4328 83.9561 65.7179 95.8813 65.7179 110.531ZM155.102 110.531C155.102 125.17 166.018 137.106 179.277 137.106C192.85 137.106 203.453 125.181 203.453 110.531C203.666 95.9818 192.839 83.9561 179.277 83.9561C165.805 83.9561 155.102 95.8813 155.102 110.531Z"/>
</mask>
<path fill-rule="evenodd" clip-rule="evenodd" d="M241.023 49.5365C241.654 48.368 242.215 47.1623 242.701 45.9261C243.1 44.8538 243.443 43.7616 243.729 42.654C245.641 46.2695 247.452 49.922 249.159 53.6123L246.937 69.2743C243.345 70.7651 239.964 72.7185 236.879 75.0848L221.967 69.1C221.31 68.8331 220.577 68.8158 219.908 69.0512C219.239 69.2867 218.679 69.7587 218.334 70.3783L206.416 91.0347C206.047 91.6473 205.917 92.3743 206.052 93.0764C206.186 93.7786 206.574 94.4067 207.142 94.8406L219.7 104.689C219.448 106.616 219.312 108.557 219.293 110.5C219.311 112.443 219.447 114.384 219.7 116.311L207.142 126.159C206.574 126.593 206.186 127.221 206.052 127.924C205.917 128.626 206.047 129.353 206.416 129.965L218.334 150.622C218.679 151.241 219.239 151.713 219.908 151.949C220.577 152.184 221.31 152.167 221.967 151.9L236.821 145.915C239.912 148.273 243.292 150.226 246.879 151.726L249.117 167.501C249.216 168.199 249.565 168.838 250.1 169.297C250.635 169.757 251.318 170.007 252.024 170H264.225C244.69 183.652 223.081 194.108 200.214 200.964C200.044 201.015 199.862 201.012 199.694 200.956C199.525 200.9 199.378 200.794 199.273 200.651C194.195 193.717 189.578 186.415 185.543 178.744C185.488 178.638 185.456 178.522 185.45 178.403C185.443 178.284 185.463 178.165 185.506 178.054C185.55 177.943 185.616 177.842 185.702 177.759C185.788 177.676 185.89 177.612 186.002 177.571C193.321 174.869 200.293 171.62 206.995 167.779C207.114 167.708 207.214 167.609 207.286 167.49C207.358 167.372 207.399 167.237 207.405 167.099C207.412 166.961 207.384 166.823 207.324 166.698C207.264 166.573 207.174 166.465 207.062 166.383C205.639 165.345 204.238 164.261 202.893 163.167C202.769 163.069 202.621 163.008 202.465 162.99C202.308 162.973 202.15 162.999 202.007 163.067C158.509 182.763 110.841 182.763 66.8275 163.067C66.6857 163.003 66.5289 162.98 66.3746 162.999C66.2202 163.019 66.0744 163.081 65.9533 163.178C64.6083 164.261 63.1961 165.345 61.7839 166.383C61.6729 166.467 61.5843 166.576 61.5263 166.702C61.4683 166.828 61.4425 166.967 61.4514 167.105C61.4603 167.243 61.5035 167.377 61.5772 167.495C61.6509 167.612 61.7527 167.71 61.8736 167.779C68.5994 171.588 75.6147 174.866 82.855 177.582C82.967 177.622 83.0693 177.685 83.1548 177.767C83.2403 177.849 83.3071 177.949 83.3507 178.059C83.3943 178.169 83.4136 178.287 83.4073 178.405C83.4011 178.523 83.3694 178.639 83.3145 178.744C79.3569 186.42 74.7605 193.751 69.5735 200.662C69.4641 200.8 69.3157 200.901 69.1477 200.952C68.9798 201.004 68.8001 201.004 68.632 200.953C44.5274 193.693 21.8206 182.444 1.46243 167.678C1.36573 167.605 1.28505 167.512 1.22532 167.407C1.16559 167.301 1.12805 167.185 1.11498 167.064C-3.58118 117.867 5.97926 68.0446 40.8586 16.9605C40.9445 16.8259 41.0696 16.7207 41.2172 16.659C58.3767 8.94336 76.7578 3.24873 95.9684 0.0106085C96.1418 -0.0167803 96.3194 0.00916349 96.4776 0.0849761C96.6358 0.160789 96.767 0.282865 96.8538 0.434915C99.4131 4.88146 101.722 9.4666 103.769 14.169C124.155 11.1345 144.881 11.1345 165.267 14.169C167.106 9.92596 169.728 4.55514 172.082 0.434915C172.169 0.284714 172.302 0.165338 172.46 0.0933193C172.619 0.0213004 172.796 0.000201898 172.967 0.0329414C178.4 0.94815 183.766 2.05959 189.055 3.35718L182.56 8.65772C182.176 8.95926 181.916 9.39181 181.83 9.87262C181.743 10.3534 181.836 10.8487 182.091 11.2638L187.654 20.6015C187.023 21.7703 186.462 22.976 185.975 24.2119C185.512 25.4568 185.124 26.7285 184.814 28.02L174.438 31.2566C173.971 31.3955 173.571 31.7021 173.315 32.1178C173.058 32.5335 172.963 33.029 173.047 33.5096L175.562 49.5912C175.63 50.0706 175.87 50.5079 176.237 50.8208C176.605 51.1337 177.074 51.3006 177.556 51.2899L188.445 51.0778C189.83 53.3337 191.498 55.4014 193.408 57.2303L190.973 67.8447C190.866 68.3143 190.931 68.8066 191.158 69.23C191.385 69.6534 191.758 69.9789 192.208 70.1458L207.334 75.9362C207.78 76.112 208.275 76.1188 208.727 75.9552C209.179 75.7917 209.557 75.469 209.79 75.0474L215.065 65.5206C217.709 65.4413 220.332 65.0158 222.868 64.2546L230.832 71.6836C231.184 72.0136 231.644 72.2026 232.127 72.2149C232.609 72.2272 233.08 72.0619 233.45 71.7502L246.061 61.4591C246.445 61.1576 246.705 60.725 246.791 60.2442C246.878 59.7634 246.785 59.2681 246.53 58.853L241.023 49.5365ZM262.146 89.7201C265.598 102.957 267.789 116.653 268.621 130.841C267.108 131.185 265.558 131.36 264 131.36C259.871 131.366 255.833 130.147 252.397 127.858C248.961 125.57 246.281 122.314 244.697 118.503C243.113 114.692 242.695 110.497 243.497 106.448C244.299 102.4 246.285 98.6804 249.203 95.7602C252.12 92.84 255.839 90.8504 259.888 90.0432C260.637 89.8939 261.391 89.7864 262.146 89.7201ZM209.25 48.3887C206.628 47.3893 204.363 45.6305 202.742 43.3348C201.121 41.0391 200.216 38.3097 200.142 35.492C200.068 32.6743 200.828 29.8949 202.326 27.5054C203.824 25.1159 205.993 23.2238 208.559 22.0685C211.124 20.9131 213.97 20.5464 216.737 21.0148C219.504 21.4832 222.068 22.7656 224.103 24.6998C226.139 26.634 227.556 29.133 228.173 31.8807C228.791 34.6284 228.583 37.5012 227.574 40.1357C226.908 41.8844 225.905 43.4853 224.623 44.8467C223.341 46.2082 221.805 47.3035 220.103 48.07C218.401 48.8365 216.566 49.2592 214.704 49.3139C212.842 49.3686 210.989 49.0542 209.25 48.3887ZM65.7179 110.531C65.7179 125.17 76.6458 137.106 89.8936 137.106C103.354 137.106 114.069 125.181 114.069 110.531C114.282 95.9818 103.455 83.9561 89.8936 83.9561C76.4328 83.9561 65.7179 95.8813 65.7179 110.531ZM155.102 110.531C155.102 125.17 166.018 137.106 179.277 137.106C192.85 137.106 203.453 125.181 203.453 110.531C203.666 95.9818 192.839 83.9561 179.277 83.9561C165.805 83.9561 155.102 95.8813 155.102 110.531Z" fill="url(#paint0_linear_335_602)"/>
<path d="M242.701 45.9261L245.493 47.0241L245.503 46.9986L245.512 46.973L242.701 45.9261ZM241.023 49.5365L238.384 48.1101L237.577 49.6026L238.44 51.0631L241.023 49.5365ZM243.729 42.654L246.381 41.2515L242.759 34.4025L240.824 41.9047L243.729 42.654ZM249.159 53.6123L252.129 54.0337L252.254 53.1567L251.882 52.3527L249.159 53.6123ZM246.937 69.2743L248.087 72.045L249.667 71.3893L249.907 69.6957L246.937 69.2743ZM236.879 75.0848L235.762 77.8689L237.349 78.5057L238.705 77.4652L236.879 75.0848ZM221.967 69.1L220.839 71.8797L220.85 71.8841L221.967 69.1ZM218.334 70.3783L220.932 71.8775L220.943 71.858L220.954 71.8384L218.334 70.3783ZM206.416 91.0347L208.986 92.5812L209 92.5577L209.014 92.534L206.416 91.0347ZM206.052 93.0764L203.105 93.6391L203.105 93.6391L206.052 93.0764ZM207.142 94.8406L208.994 92.48L208.978 92.4679L208.963 92.456L207.142 94.8406ZM219.7 104.689L222.674 105.079L222.896 103.384L221.551 102.329L219.7 104.689ZM219.293 110.5L216.293 110.471L216.293 110.499L216.293 110.528L219.293 110.5ZM219.7 116.311L221.551 118.671L222.897 117.616L222.674 115.92L219.7 116.311ZM207.142 126.159L208.963 128.544L208.978 128.532L208.994 128.52L207.142 126.159ZM206.052 127.924L203.105 127.361L203.105 127.361L206.052 127.924ZM206.416 129.965L209.014 128.466L209 128.442L208.986 128.419L206.416 129.965ZM218.334 150.622L220.954 149.162L220.943 149.142L220.932 149.123L218.334 150.622ZM219.908 151.949L218.913 154.779L218.913 154.779L219.908 151.949ZM221.967 151.9L220.846 149.117L220.839 149.12L221.967 151.9ZM236.821 145.915L238.641 143.53L237.283 142.495L235.7 143.133L236.821 145.915ZM246.879 151.726L249.849 151.304L249.609 149.616L248.036 148.958L246.879 151.726ZM249.117 167.501L252.087 167.081L252.087 167.08L249.117 167.501ZM250.1 169.297L248.144 171.573L248.144 171.573L250.1 169.297ZM252.024 170V167H252.009L251.994 167L252.024 170ZM264.225 170L265.943 172.459L273.755 167H264.225V170ZM200.214 200.964L201.071 203.839L201.076 203.838L200.214 200.964ZM199.273 200.651L196.852 202.424L196.858 202.431L196.863 202.439L199.273 200.651ZM185.543 178.744L182.881 180.128L182.888 180.14L185.543 178.744ZM185.506 178.054L182.713 176.959L182.713 176.959L185.506 178.054ZM185.702 177.759L183.61 175.609L183.61 175.609L185.702 177.759ZM186.002 177.571L187.023 180.392L187.032 180.389L187.041 180.386L186.002 177.571ZM206.995 167.779L208.487 170.382L208.505 170.371L208.523 170.361L206.995 167.779ZM207.405 167.099L204.409 166.954L204.409 166.955L207.405 167.099ZM207.324 166.698L210.03 165.401L210.029 165.401L207.324 166.698ZM207.062 166.383L205.294 168.807L205.295 168.807L207.062 166.383ZM202.893 163.167L204.786 160.84L204.771 160.828L204.757 160.816L202.893 163.167ZM202.007 163.067L203.245 165.8L203.27 165.788L203.295 165.776L202.007 163.067ZM66.8275 163.067L65.5962 165.802L65.6021 165.805L66.8275 163.067ZM66.3746 162.999L65.9945 160.023L65.9945 160.023L66.3746 162.999ZM65.9533 163.178L64.0729 160.841L64.0717 160.842L65.9533 163.178ZM61.7839 166.383L60.0067 163.966L59.9938 163.976L59.9811 163.985L61.7839 166.383ZM61.8736 167.779L60.3906 170.387L60.3951 170.389L61.8736 167.779ZM82.855 177.582L81.8012 180.391L81.8307 180.402L81.8605 180.413L82.855 177.582ZM83.1548 177.767L81.0765 179.93L81.0766 179.93L83.1548 177.767ZM83.3507 178.059L80.5612 179.162L80.5612 179.163L83.3507 178.059ZM83.4073 178.405L80.4115 178.247L80.4115 178.247L83.4073 178.405ZM83.3145 178.744L80.6566 177.352L80.6523 177.361L80.6481 177.369L83.3145 178.744ZM69.5735 200.662L71.9183 202.534L71.9461 202.499L71.9729 202.463L69.5735 200.662ZM69.1477 200.952L68.2638 198.086L68.2638 198.086L69.1477 200.952ZM68.632 200.953L69.5116 198.085L69.5044 198.082L69.4972 198.08L68.632 200.953ZM1.46243 167.678L-0.353422 170.066L-0.326429 170.087L-0.29898 170.107L1.46243 167.678ZM1.22532 167.407L-1.38574 168.884L-1.38574 168.884L1.22532 167.407ZM1.11498 167.064L-1.87145 167.349L-1.86961 167.368L-1.86753 167.388L1.11498 167.064ZM40.8586 16.9605L43.3361 18.6521L43.3625 18.6136L43.3876 18.5742L40.8586 16.9605ZM41.2172 16.659L42.3739 19.4271L42.4109 19.4116L42.4475 19.3951L41.2172 16.659ZM95.9684 0.0106085L95.5003 -2.95265L95.485 -2.95023L95.4697 -2.94766L95.9684 0.0106085ZM96.4776 0.0849761L95.1811 2.79038L95.1812 2.7904L96.4776 0.0849761ZM96.8538 0.434915L94.248 1.92154L94.2537 1.93146L96.8538 0.434915ZM103.769 14.169L101.019 15.3666L101.936 17.4749L104.211 17.1363L103.769 14.169ZM165.267 14.169L164.826 17.1363L167.104 17.4755L168.02 15.3615L165.267 14.169ZM172.082 0.434915L169.49 -1.0755L169.483 -1.06436L169.477 -1.05315L172.082 0.434915ZM172.46 0.0933193L171.22 -2.63838L171.22 -2.63834L172.46 0.0933193ZM172.967 0.0329414L172.404 2.97955L172.436 2.98576L172.469 2.99126L172.967 0.0329414ZM189.055 3.35718L190.952 5.68149L195.614 1.87714L189.77 0.443566L189.055 3.35718ZM182.56 8.65772L184.414 11.0163L184.435 10.9993L184.457 10.982L182.56 8.65772ZM181.83 9.87262L184.782 10.4038L184.782 10.4037L181.83 9.87262ZM182.091 11.2638L184.668 9.72847L184.658 9.71162L184.648 9.69491L182.091 11.2638ZM187.654 20.6015L190.294 22.0266L191.102 20.5287L190.231 19.0662L187.654 20.6015ZM185.975 24.2119L183.184 23.1125L183.174 23.1387L183.164 23.165L185.975 24.2119ZM184.814 28.02L185.707 30.8839L187.333 30.3767L187.731 28.7205L184.814 28.02ZM174.438 31.2566L175.294 34.1319L175.313 34.1263L175.331 34.1205L174.438 31.2566ZM173.315 32.1178L170.762 30.5416L170.762 30.5416L173.315 32.1178ZM173.047 33.5096L176.011 33.0459L176.006 33.0189L176.002 32.9919L173.047 33.5096ZM175.562 49.5912L178.533 49.1719L178.53 49.1497L178.526 49.1275L175.562 49.5912ZM176.237 50.8208L174.292 53.1042L174.292 53.1043L176.237 50.8208ZM177.556 51.2899L177.498 48.2905L177.49 48.2906L177.556 51.2899ZM188.445 51.0778L191.002 49.5079L190.103 48.045L188.387 48.0784L188.445 51.0778ZM193.408 57.2303L196.332 57.901L196.713 56.2414L195.483 55.0637L193.408 57.2303ZM190.973 67.8447L193.897 68.5166L193.898 68.5153L190.973 67.8447ZM191.158 69.23L188.515 70.6479L188.515 70.648L191.158 69.23ZM192.208 70.1458L193.28 67.344L193.266 67.3387L193.252 67.3336L192.208 70.1458ZM207.334 75.9362L208.435 73.1452L208.421 73.1398L208.407 73.1345L207.334 75.9362ZM208.727 75.9552L209.748 78.7761L209.748 78.7761L208.727 75.9552ZM209.79 75.0474L207.165 73.5941L207.165 73.5953L209.79 75.0474ZM215.065 65.5206L214.975 62.5219L213.268 62.5731L212.441 64.0673L215.065 65.5206ZM222.868 64.2546L224.914 62.0609L223.655 60.8862L222.005 61.3812L222.868 64.2546ZM230.832 71.6836L232.884 69.4952L232.878 69.4898L230.832 71.6836ZM232.127 72.2149L232.05 75.2139L232.05 75.2139L232.127 72.2149ZM233.45 71.7502L231.553 69.4259L231.536 69.4401L231.519 69.4545L233.45 71.7502ZM246.061 61.4591L244.207 59.1006L244.186 59.1175L244.165 59.1348L246.061 61.4591ZM246.791 60.2442L243.839 59.713L243.839 59.7131L246.791 60.2442ZM246.53 58.853L243.948 60.3796L243.96 60.4009L243.973 60.422L246.53 58.853ZM268.621 130.841L269.285 133.767L271.764 133.204L271.615 130.666L268.621 130.841ZM262.146 89.7201L265.049 88.963L264.409 86.51L261.884 86.7316L262.146 89.7201ZM264 131.36L264 128.36L263.996 128.36L264 131.36ZM252.397 127.858L250.734 130.355L250.734 130.355L252.397 127.858ZM243.497 106.448L240.555 105.865L240.555 105.865L243.497 106.448ZM249.203 95.7602L247.08 93.6398L247.08 93.6398L249.203 95.7602ZM259.888 90.0432L259.302 87.101L259.302 87.101L259.888 90.0432ZM209.25 48.3887L210.323 45.587L210.319 45.5855L209.25 48.3887ZM202.326 27.5054L199.784 25.9117L199.784 25.9117L202.326 27.5054ZM208.559 22.0685L207.327 19.3331L207.327 19.3331L208.559 22.0685ZM216.737 21.0148L217.238 18.0569L217.238 18.0569L216.737 21.0148ZM224.103 24.6998L226.17 22.525L226.17 22.525L224.103 24.6998ZM228.173 31.8807L231.1 31.2226L231.1 31.2226L228.173 31.8807ZM227.574 40.1357L224.772 39.0632L224.771 39.0671L227.574 40.1357ZM220.103 48.07L221.335 50.8054L221.335 50.8054L220.103 48.07ZM214.704 49.3139L214.792 52.3126L214.792 52.3126L214.704 49.3139ZM114.069 110.531L111.07 110.487L111.069 110.509V110.531H114.069ZM203.453 110.531L200.453 110.487L200.453 110.509V110.531H203.453ZM239.909 44.8281C239.467 45.9519 238.958 47.0479 238.384 48.1101L243.662 50.9629C244.351 49.6881 244.962 48.3727 245.493 47.0241L239.909 44.8281ZM240.824 41.9047C240.565 42.9116 240.253 43.9045 239.89 44.8792L245.512 46.973C245.948 45.8032 246.322 44.6116 246.634 43.4032L240.824 41.9047ZM251.882 52.3527C250.152 48.6133 248.318 44.9132 246.381 41.2515L241.077 44.0564C242.965 47.6258 244.752 51.2307 246.436 54.8718L251.882 52.3527ZM249.907 69.6957L252.129 54.0337L246.189 53.1909L243.967 68.8529L249.907 69.6957ZM238.705 77.4652C241.583 75.2579 244.737 73.4357 248.087 72.045L245.787 66.5035C241.954 68.0945 238.346 70.1791 235.053 72.7044L238.705 77.4652ZM220.85 71.8841L235.762 77.8689L237.997 72.3007L223.085 66.3158L220.85 71.8841ZM220.904 71.8812C220.883 71.8886 220.86 71.8881 220.839 71.8797L223.096 66.3203C221.76 65.7781 220.272 65.7429 218.913 66.2213L220.904 71.8812ZM220.954 71.8384C220.943 71.8587 220.925 71.8738 220.904 71.8812L218.913 66.2213C217.553 66.6996 216.415 67.6587 215.713 68.9182L220.954 71.8384ZM209.014 92.534L220.932 71.8775L215.735 68.879L203.817 89.5355L209.014 92.534ZM208.998 92.5138C209.003 92.5371 208.998 92.5611 208.986 92.5812L203.845 89.4882C203.096 90.7335 202.832 92.2114 203.105 93.6391L208.998 92.5138ZM208.963 92.456C208.981 92.47 208.994 92.4905 208.998 92.5137L203.105 93.6391C203.377 95.0667 204.167 96.3434 205.322 97.2252L208.963 92.456ZM221.551 102.329L208.994 92.48L205.291 97.2012L217.848 107.05L221.551 102.329ZM222.293 110.529C222.31 108.706 222.438 106.886 222.674 105.079L216.725 104.3C216.457 106.347 216.313 108.407 216.293 110.471L222.293 110.529ZM222.674 115.92C222.437 114.113 222.31 112.294 222.293 110.473L216.293 110.528C216.312 112.592 216.456 114.654 216.725 116.701L222.674 115.92ZM208.994 128.52L221.551 118.671L217.848 113.95L205.291 123.799L208.994 128.52ZM208.998 128.486C208.994 128.51 208.981 128.53 208.963 128.544L205.322 123.775C204.167 124.657 203.377 125.933 203.105 127.361L208.998 128.486ZM208.986 128.419C208.998 128.439 209.003 128.463 208.998 128.486L203.105 127.361C202.832 128.789 203.096 130.266 203.845 131.512L208.986 128.419ZM220.932 149.123L209.014 128.466L203.817 131.465L215.735 152.121L220.932 149.123ZM220.904 149.119C220.925 149.126 220.943 149.141 220.954 149.162L215.713 152.082C216.415 153.341 217.553 154.3 218.913 154.779L220.904 149.119ZM220.839 149.12C220.86 149.112 220.883 149.111 220.904 149.119L218.913 154.779C220.272 155.257 221.76 155.222 223.096 154.68L220.839 149.12ZM235.7 143.133L220.846 149.117L223.088 154.683L237.942 148.698L235.7 143.133ZM248.036 148.958C244.686 147.557 241.528 145.732 238.641 143.53L235.002 148.3C238.296 150.813 241.898 152.895 245.721 154.493L248.036 148.958ZM252.087 167.08L249.849 151.304L243.908 152.147L246.147 167.923L252.087 167.08ZM252.055 167.022C252.073 167.037 252.084 167.058 252.087 167.081L246.147 167.921C246.347 169.341 247.057 170.638 248.144 171.573L252.055 167.022ZM251.994 167C252.016 167 252.038 167.008 252.055 167.022L248.144 171.573C249.231 172.507 250.621 173.014 252.053 173L251.994 167ZM264.225 167H252.024V173H264.225V167ZM201.076 203.838C224.248 196.89 246.146 186.294 265.943 172.459L262.506 167.541C243.233 181.01 221.913 191.326 199.352 198.09L201.076 203.838ZM198.748 203.803C199.5 204.053 200.312 204.065 201.071 203.839L199.357 198.089C199.776 197.964 200.224 197.971 200.639 198.109L198.748 203.803ZM196.863 202.439C197.337 203.077 197.996 203.553 198.748 203.803L200.639 198.109C201.055 198.247 201.419 198.51 201.682 198.864L196.863 202.439ZM182.888 180.14C186.996 187.952 191.694 195.379 196.852 202.424L201.693 198.879C196.697 192.055 192.159 184.878 188.198 177.347L182.888 180.14ZM182.454 178.562C182.483 179.109 182.629 179.643 182.881 180.128L188.204 177.36C188.347 177.633 188.429 177.935 188.445 178.244L182.454 178.562ZM182.713 176.959C182.513 177.469 182.425 178.015 182.454 178.562L188.445 178.244C188.462 178.552 188.412 178.861 188.299 179.149L182.713 176.959ZM183.61 175.609C183.219 175.99 182.913 176.45 182.713 176.959L188.299 179.149C188.187 179.436 188.014 179.695 187.794 179.91L183.61 175.609ZM184.982 174.75C184.47 174.935 184.002 175.228 183.61 175.609L187.794 179.91C187.573 180.124 187.31 180.288 187.023 180.392L184.982 174.75ZM205.503 165.176C198.948 168.933 192.128 172.112 184.963 174.757L187.041 180.386C194.514 177.627 201.637 174.307 208.487 170.382L205.503 165.176ZM204.718 165.94C204.903 165.634 205.16 165.378 205.467 165.197L208.523 170.361C209.068 170.038 209.526 169.584 209.854 169.041L204.718 165.94ZM204.409 166.955C204.426 166.595 204.532 166.247 204.718 165.94L209.854 169.041C210.183 168.497 210.371 167.879 210.402 167.243L204.409 166.955ZM204.619 167.994C204.464 167.671 204.391 167.314 204.409 166.954L210.402 167.243C210.432 166.607 210.304 165.975 210.03 165.401L204.619 167.994ZM205.295 168.807C205.006 168.597 204.774 168.318 204.619 167.995L210.029 165.401C209.755 164.828 209.343 164.333 208.83 163.959L205.295 168.807ZM200.999 165.494C202.383 166.62 203.826 167.736 205.294 168.807L208.83 163.959C207.451 162.954 206.092 161.903 204.786 160.84L200.999 165.494ZM202.126 165.971C201.726 165.926 201.346 165.769 201.029 165.518L204.757 160.816C204.193 160.369 203.516 160.09 202.803 160.01L202.126 165.971ZM203.295 165.776C202.931 165.949 202.526 166.017 202.126 165.971L202.803 160.01C202.09 159.929 201.368 160.049 200.719 160.357L203.295 165.776ZM65.6021 165.805C110.391 185.849 158.955 185.855 203.245 165.8L200.77 160.334C158.063 179.672 111.292 179.678 68.053 160.328L65.6021 165.805ZM66.7546 165.975C66.3603 166.025 65.9594 165.966 65.5962 165.802L68.0589 160.331C67.4121 160.04 66.6975 159.934 65.9945 160.023L66.7546 165.975ZM67.8337 165.516C67.5228 165.766 67.1492 165.925 66.7546 165.975L65.9945 160.023C65.2912 160.113 64.626 160.396 64.0729 160.841L67.8337 165.516ZM63.5612 168.8C65.0056 167.738 66.4528 166.628 67.8349 165.515L64.0717 160.842C62.7639 161.895 61.3867 162.951 60.0067 163.966L63.5612 168.8ZM64.2512 167.957C64.101 168.283 63.8724 168.566 63.5868 168.781L59.9811 163.985C59.4733 164.367 59.0677 164.869 58.8014 165.447L64.2512 167.957ZM64.4453 166.913C64.4683 167.272 64.4014 167.631 64.2512 167.957L58.8014 165.447C58.5351 166.025 58.4167 166.661 58.4576 167.297L64.4453 166.913ZM64.1194 165.902C64.3099 166.206 64.4222 166.553 64.4453 166.913L58.4576 167.297C58.4985 167.933 58.6971 168.548 59.035 169.088L64.1194 165.902ZM63.3566 165.171C63.6666 165.347 63.929 165.598 64.1194 165.902L59.035 169.088C59.3728 169.627 59.8388 170.073 60.3906 170.387L63.3566 165.171ZM83.9088 174.774C76.8149 172.112 69.9416 168.901 63.3521 165.168L60.3951 170.389C67.2571 174.276 74.4144 177.62 81.8012 180.391L83.9088 174.774ZM85.2331 175.603C84.8378 175.224 84.3658 174.933 83.8495 174.752L81.8605 180.413C81.5682 180.31 81.3008 180.146 81.0765 179.93L85.2331 175.603ZM86.1402 176.955C85.9382 176.444 85.6286 175.983 85.233 175.603L81.0766 179.93C80.852 179.715 80.6761 179.453 80.5612 179.162L86.1402 176.955ZM86.4032 178.563C86.4322 178.014 86.3424 177.466 86.1402 176.955L80.5612 179.163C80.4462 178.872 80.395 178.559 80.4115 178.247L86.4032 178.563ZM85.9724 180.135C86.2271 179.648 86.3742 179.112 86.4032 178.563L80.4115 178.247C80.428 177.934 80.5117 177.629 80.6566 177.352L85.9724 180.135ZM71.9729 202.463C77.2606 195.418 81.9464 187.944 85.981 180.118L80.6481 177.369C76.7675 184.895 72.2604 192.085 67.1741 198.862L71.9729 202.463ZM70.0317 203.819C70.7742 203.59 71.4321 203.143 71.9183 202.534L67.2287 198.791C67.4961 198.456 67.8572 198.211 68.2638 198.086L70.0317 203.819ZM67.7525 203.821C68.4952 204.049 69.2893 204.048 70.0317 203.819L68.2638 198.086C68.6703 197.96 69.1049 197.96 69.5116 198.085L67.7525 203.821ZM-0.29898 170.107C20.3312 185.07 43.341 196.469 67.7669 203.825L69.4972 198.08C45.7137 190.917 23.3099 179.819 3.22384 165.25L-0.29898 170.107ZM-1.38574 168.884C-1.12517 169.345 -0.773731 169.747 -0.353422 170.066L3.27828 165.29C3.50518 165.463 3.69528 165.68 3.83639 165.93L-1.38574 168.884ZM-1.86753 167.388C-1.81041 167.914 -1.64633 168.423 -1.38574 168.884L3.83639 165.93C3.97751 166.179 4.0665 166.455 4.09749 166.741L-1.86753 167.388ZM38.381 15.2689C3.08219 66.9674 -6.63007 117.498 -1.87145 167.349L4.1014 166.779C-0.532278 118.236 8.87632 69.1219 43.3361 18.6521L38.381 15.2689ZM40.0606 13.891C39.3498 14.188 38.7452 14.6953 38.3295 15.3468L43.3876 18.5742C43.1437 18.9565 42.7894 19.2534 42.3739 19.4271L40.0606 13.891ZM95.4697 -2.94766C76 0.334153 57.3734 6.10517 39.987 13.9229L42.4475 19.3951C59.38 11.7815 77.5157 6.16331 96.467 2.96888L95.4697 -2.94766ZM97.7741 -2.62043C97.0671 -2.95923 96.274 -3.07487 95.5003 -2.95265L96.4364 2.97387C96.0095 3.04131 95.5717 2.97755 95.1811 2.79038L97.7741 -2.62043ZM99.4595 -1.0517C99.0697 -1.73495 98.4812 -2.28158 97.774 -2.62045L95.1812 2.7904C94.7904 2.60316 94.4643 2.30068 94.248 1.92153L99.4595 -1.0517ZM106.52 12.9715C104.428 8.16662 102.069 3.48167 99.4539 -1.06163L94.2537 1.93146C96.7574 6.28125 99.0158 10.7666 101.019 15.3666L106.52 12.9715ZM165.709 11.2017C145.03 8.12362 124.007 8.12362 103.327 11.2017L104.211 17.1363C124.304 14.1454 144.732 14.1454 164.826 17.1363L165.709 11.2017ZM169.477 -1.05315C167.059 3.17972 164.388 8.65189 162.515 12.9765L168.02 15.3615C169.823 11.2 172.398 5.93057 174.687 1.92298L169.477 -1.05315ZM171.22 -2.63834C170.497 -2.30985 169.891 -1.7644 169.49 -1.0755L174.674 1.94533C174.448 2.33383 174.107 2.64052 173.701 2.82498L171.22 -2.63834ZM173.531 -2.91366C172.751 -3.0628 171.944 -2.96681 171.22 -2.63838L173.7 2.82502C173.294 3.00941 172.841 3.0632 172.404 2.97955L173.531 -2.91366ZM189.77 0.443566C184.41 -0.871425 178.972 -1.99782 173.466 -2.92538L172.469 2.99126C177.828 3.89412 183.122 4.99061 188.341 6.2708L189.77 0.443566ZM184.457 10.982L190.952 5.68149L187.159 1.03287L180.663 6.33341L184.457 10.982ZM184.782 10.4037C184.739 10.6451 184.609 10.8631 184.414 11.0163L180.706 6.29918C179.744 7.05539 179.094 8.13855 178.877 9.34151L184.782 10.4037ZM184.648 9.69491C184.78 9.90977 184.826 10.1623 184.782 10.4038L178.877 9.34141C178.661 10.5446 178.893 11.7877 179.534 12.8327L184.648 9.69491ZM190.231 19.0662L184.668 9.72847L179.514 12.7992L185.076 22.1369L190.231 19.0662ZM188.767 25.3113C189.21 24.1869 189.719 23.09 190.294 22.0266L185.014 19.1765C184.326 20.4507 183.715 21.7651 183.184 23.1125L188.767 25.3113ZM187.731 28.7205C188.013 27.5465 188.365 26.3905 188.787 25.2588L183.164 23.165C182.658 24.5231 182.235 25.9105 181.897 27.3195L187.731 28.7205ZM175.331 34.1205L185.707 30.8839L183.921 25.1561L173.545 28.3927L175.331 34.1205ZM175.867 33.694C175.738 33.9028 175.535 34.06 175.294 34.1319L173.582 28.3813C172.407 28.731 171.404 29.5015 170.762 30.5416L175.867 33.694ZM176.002 32.9919C176.044 33.236 175.996 33.4854 175.867 33.694L170.762 30.5416C170.12 31.5815 169.881 32.822 170.092 34.0273L176.002 32.9919ZM178.526 49.1275L176.011 33.0459L170.083 33.9733L172.599 50.0549L178.526 49.1275ZM178.183 48.5374C178.376 48.7016 178.499 48.9283 178.533 49.1719L172.592 50.0104C172.762 51.2128 173.364 52.3142 174.292 53.1042L178.183 48.5374ZM177.49 48.2906C177.743 48.285 177.99 48.3729 178.183 48.5373L174.292 53.1043C175.219 53.8946 176.404 54.3161 177.622 54.2892L177.49 48.2906ZM188.387 48.0784L177.498 48.2905L177.614 54.2893L188.503 54.0773L188.387 48.0784ZM195.483 55.0637C193.759 53.4125 192.253 51.5454 191.002 49.5079L185.889 52.6478C187.408 55.1221 189.238 57.3903 191.333 59.3969L195.483 55.0637ZM193.898 68.5153L196.332 57.901L190.484 56.5597L188.049 67.174L193.898 68.5153ZM193.802 67.8121C193.919 68.0306 193.951 68.281 193.897 68.5166L188.05 67.1727C187.78 68.3475 187.943 69.5827 188.515 70.6479L193.802 67.8121ZM193.252 67.3336C193.49 67.4218 193.685 67.593 193.802 67.812L188.515 70.648C189.086 71.7137 190.027 72.5359 191.163 72.958L193.252 67.3336ZM208.407 73.1345L193.28 67.344L191.135 72.9475L206.262 78.738L208.407 73.1345ZM207.706 73.1344C207.94 73.0498 208.199 73.0524 208.435 73.1452L206.234 78.7272C207.362 79.1717 208.611 79.1878 209.748 78.7761L207.706 73.1344ZM207.165 73.5953C207.282 73.3837 207.473 73.2188 207.706 73.1344L209.748 78.7761C210.885 78.3646 211.831 77.5544 212.415 76.4995L207.165 73.5953ZM212.441 64.0673L207.165 73.5941L212.414 76.5007L217.69 66.9738L212.441 64.0673ZM222.005 61.3812C219.72 62.0672 217.357 62.4505 214.975 62.5219L215.155 68.5192C218.061 68.4321 220.943 67.9644 223.73 67.128L222.005 61.3812ZM232.878 69.4898L224.914 62.0609L220.821 66.4484L228.786 73.8773L232.878 69.4898ZM232.203 69.2159C232.457 69.2223 232.699 69.322 232.884 69.4952L228.78 73.8719C229.669 74.7053 230.832 75.1829 232.05 75.2139L232.203 69.2159ZM231.519 69.4545C231.707 69.2962 231.95 69.2094 232.203 69.2159L232.05 75.2139C233.268 75.2449 234.452 74.8275 235.381 74.0459L231.519 69.4545ZM244.165 59.1348L231.553 69.4259L235.347 74.0745L247.958 63.7834L244.165 59.1348ZM243.839 59.7131C243.882 59.4718 244.012 59.2537 244.207 59.1006L247.915 63.8176C248.877 63.0614 249.527 61.9783 249.744 60.7753L243.839 59.7131ZM243.973 60.422C243.841 60.207 243.795 59.9545 243.839 59.713L249.744 60.7754C249.96 59.5723 249.728 58.3291 249.087 57.2841L243.973 60.422ZM238.44 51.0631L243.948 60.3796L249.113 57.3264L243.605 48.0099L238.44 51.0631ZM271.615 130.666C270.772 116.281 268.551 102.391 265.049 88.963L259.243 90.4772C262.646 103.524 264.805 117.025 265.626 131.017L271.615 130.666ZM264 134.36C265.783 134.36 267.555 134.16 269.285 133.767L267.956 127.916C266.661 128.21 265.334 128.36 264 128.36V134.36ZM250.734 130.355C254.664 132.973 259.282 134.366 264.004 134.36L263.996 128.36C260.46 128.365 257.002 127.321 254.06 125.362L250.734 130.355ZM241.927 119.654C243.739 124.014 246.804 127.738 250.734 130.355L254.06 125.362C251.118 123.402 248.823 120.614 247.467 117.351L241.927 119.654ZM240.555 105.865C239.637 110.496 240.115 115.295 241.927 119.654L247.467 117.351C246.111 114.089 245.754 110.497 246.44 107.031L240.555 105.865ZM247.08 93.6398C243.743 96.9799 241.472 101.234 240.555 105.865L246.44 107.031C247.127 103.566 248.827 100.381 251.325 97.8806L247.08 93.6398ZM259.302 87.101C254.671 88.0243 250.418 90.2997 247.08 93.6398L251.325 97.8806C253.823 95.3803 257.007 93.6765 260.475 92.9853L259.302 87.101ZM261.884 86.7316C261.02 86.8074 260.158 86.9304 259.302 87.101L260.475 92.9853C261.116 92.8575 261.761 92.7654 262.408 92.7086L261.884 86.7316ZM200.292 45.0654C202.256 47.8471 205.002 49.9798 208.182 51.1919L210.319 45.5855C208.255 44.7987 206.471 43.4138 205.193 41.6041L200.292 45.0654ZM197.143 35.5708C197.232 38.9794 198.327 42.2839 200.292 45.0654L205.193 41.6041C203.914 39.7943 203.199 37.6401 203.141 35.4132L197.143 35.5708ZM199.784 25.9117C197.973 28.8012 197.053 32.1624 197.143 35.5708L203.141 35.4132C203.082 33.1862 203.683 30.9885 204.868 29.0991L199.784 25.9117ZM207.327 19.3331C204.22 20.7321 201.596 23.0222 199.784 25.9117L204.868 29.0991C206.053 27.2097 207.766 25.7155 209.791 24.8038L207.327 19.3331ZM217.238 18.0569C213.882 17.4889 210.433 17.934 207.327 19.3331L209.791 24.8038C211.815 23.8922 214.058 23.6039 216.236 23.9727L217.238 18.0569ZM226.17 22.525C223.702 20.1802 220.593 18.6249 217.238 18.0569L216.236 23.9727C218.415 24.3415 220.434 25.3511 222.037 26.8747L226.17 22.525ZM231.1 31.2226C230.353 27.8971 228.638 24.8696 226.17 22.525L222.037 26.8747C223.641 28.3984 224.759 30.369 225.246 32.5388L231.1 31.2226ZM230.376 41.2081C231.595 38.0227 231.848 34.5479 231.1 31.2226L225.246 32.5388C225.734 34.7089 225.57 36.9797 224.772 39.0632L230.376 41.2081ZM226.807 46.9034C228.358 45.256 229.571 43.3194 230.377 41.2042L224.771 39.0671C224.244 40.4494 223.451 41.7146 222.438 42.7901L226.807 46.9034ZM221.335 50.8054C223.396 49.877 225.255 48.5508 226.807 46.9034L222.438 42.7901C221.426 43.8656 220.213 44.7301 218.871 45.3347L221.335 50.8054ZM214.792 52.3126C217.05 52.2463 219.273 51.7338 221.335 50.8054L218.871 45.3347C217.528 45.9392 216.083 46.2721 214.616 46.3152L214.792 52.3126ZM208.178 51.1904C210.286 51.9977 212.534 52.3789 214.792 52.3126L214.616 46.3152C213.15 46.3583 211.691 46.1107 210.323 45.587L208.178 51.1904ZM89.8936 134.106C78.5581 134.106 68.7179 123.78 68.7179 110.531H62.7179C62.7179 126.559 74.7334 140.106 89.8936 140.106V134.106ZM111.069 110.531C111.069 123.809 101.427 134.106 89.8936 134.106V140.106C105.282 140.106 117.069 126.553 117.069 110.531H111.069ZM89.8936 86.9561C101.55 86.9561 111.262 97.3703 111.07 110.487L117.069 110.575C117.303 94.5933 105.361 80.9561 89.8936 80.9561V86.9561ZM68.7179 110.531C68.7179 97.2534 78.3607 86.9561 89.8936 86.9561V80.9561C74.5049 80.9561 62.7179 94.5092 62.7179 110.531H68.7179ZM179.277 134.106C167.932 134.106 158.102 123.781 158.102 110.531H152.102C152.102 126.558 164.105 140.106 179.277 140.106V134.106ZM200.453 110.531C200.453 123.818 190.914 134.106 179.277 134.106V140.106C194.787 140.106 206.453 126.543 206.453 110.531H200.453ZM179.277 86.9561C190.933 86.9561 200.645 97.3703 200.453 110.487L206.453 110.575C206.687 94.5933 194.745 80.9561 179.277 80.9561V86.9561ZM158.102 110.531C158.102 97.2525 167.734 86.9561 179.277 86.9561V80.9561C163.877 80.9561 152.102 94.5101 152.102 110.531H158.102Z" fill="url(#paint1_linear_335_602)" mask="url(#path-1-inside-1_335_602)"/>
<defs>
<linearGradient id="paint0_linear_335_602" x1="-0.865857" y1="200.438" x2="191.887" y2="-57.1605" gradientUnits="userSpaceOnUse">
<stop stop-color="#F42929"/>
<stop offset="0.494792" stop-color="#FF8A3F"/>
<stop offset="1" stop-color="#E5E938"/>
</linearGradient>
<linearGradient id="paint1_linear_335_602" x1="-0.865857" y1="200.438" x2="191.887" y2="-57.1605" gradientUnits="userSpaceOnUse">
<stop stop-color="#F42929"/>
<stop offset="0.494792" stop-color="#FF8A3F"/>
<stop offset="1" stop-color="#E5E938"/>
</linearGradient>
</defs>
</svg>
