<svg width="313" height="220" viewBox="0 0 313 220" fill="none" xmlns="http://www.w3.org/2000/svg">
<path d="M2.09772 13.2331C2.09772 6.75308 7.3508 1.5 13.8308 1.5H299.169C305.649 1.5 310.902 6.75308 310.902 13.2331V35.1504V206.767C310.902 213.247 305.649 218.5 299.169 218.5H13.8308C7.35081 218.5 2.09772 213.247 2.09772 206.767V35.1504V13.2331Z" stroke="url(#paint0_linear_335_599)" stroke-width="3"/>
<mask id="path-2-inside-1_335_599" fill="white">
<path fill-rule="evenodd" clip-rule="evenodd" d="M299.169 0C306.478 0 312.402 5.92465 312.402 13.2331V35.1504H0.597717V13.2331C0.597717 5.92465 6.52237 0 13.8308 0H299.169ZM39.4699 24.4767C42.8032 24.4767 45.5053 21.7746 45.5053 18.4414C45.5053 15.1081 42.8032 12.406 39.4699 12.406C36.1367 12.406 33.4346 15.1081 33.4346 18.4414C33.4346 21.7746 36.1367 24.4767 39.4699 24.4767ZM20.6932 24.4767C24.0265 24.4767 26.7286 21.7746 26.7286 18.4414C26.7286 15.1081 24.0265 12.406 20.6932 12.406C17.36 12.406 14.6579 15.1081 14.6579 18.4414C14.6579 21.7746 17.36 24.4767 20.6932 24.4767ZM64.282 18.4414C64.282 21.7746 61.5798 24.4767 58.2466 24.4767C54.9134 24.4767 52.2112 21.7746 52.2112 18.4414C52.2112 15.1081 54.9134 12.406 58.2466 12.406C61.5798 12.406 64.282 15.1081 64.282 18.4414Z"/>
</mask>
<path fill-rule="evenodd" clip-rule="evenodd" d="M299.169 0C306.478 0 312.402 5.92465 312.402 13.2331V35.1504H0.597717V13.2331C0.597717 5.92465 6.52237 0 13.8308 0H299.169ZM39.4699 24.4767C42.8032 24.4767 45.5053 21.7746 45.5053 18.4414C45.5053 15.1081 42.8032 12.406 39.4699 12.406C36.1367 12.406 33.4346 15.1081 33.4346 18.4414C33.4346 21.7746 36.1367 24.4767 39.4699 24.4767ZM20.6932 24.4767C24.0265 24.4767 26.7286 21.7746 26.7286 18.4414C26.7286 15.1081 24.0265 12.406 20.6932 12.406C17.36 12.406 14.6579 15.1081 14.6579 18.4414C14.6579 21.7746 17.36 24.4767 20.6932 24.4767ZM64.282 18.4414C64.282 21.7746 61.5798 24.4767 58.2466 24.4767C54.9134 24.4767 52.2112 21.7746 52.2112 18.4414C52.2112 15.1081 54.9134 12.406 58.2466 12.406C61.5798 12.406 64.282 15.1081 64.282 18.4414Z" fill="url(#paint1_linear_335_599)"/>
<path d="M299.169 218.759H13.8308V221.241H299.169V218.759ZM1.83832 206.767V35.1504H-0.642884V206.767H1.83832ZM311.162 35.1504V206.767H313.643V35.1504H311.162ZM13.8308 218.759C7.20755 218.759 1.83832 213.39 1.83832 206.767H-0.642884C-0.642884 214.761 5.83722 221.241 13.8308 221.241V218.759ZM299.169 221.241C307.163 221.241 313.643 214.761 313.643 206.767H311.162C311.162 213.39 305.792 218.759 299.169 218.759V221.241ZM312.402 35.1504V37.6316H314.883V35.1504H312.402ZM0.597717 35.1504H-1.88349V37.6316H0.597717V35.1504ZM314.883 13.2331C314.883 4.55432 307.848 -2.4812 299.169 -2.4812V2.4812C305.107 2.4812 309.921 7.29498 309.921 13.2331H314.883ZM314.883 35.1504V13.2331H309.921V35.1504H314.883ZM0.597717 37.6316H312.402V32.6692H0.597717V37.6316ZM-1.88349 13.2331V35.1504H3.07892V13.2331H-1.88349ZM13.8308 -2.4812C5.15204 -2.4812 -1.88349 4.55432 -1.88349 13.2331H3.07892C3.07892 7.29498 7.8927 2.4812 13.8308 2.4812V-2.4812ZM299.169 -2.4812H13.8308V2.4812H299.169V-2.4812ZM43.0241 18.4414C43.0241 20.4043 41.4328 21.9955 39.4699 21.9955V26.9579C44.1735 26.9579 47.9865 23.1449 47.9865 18.4414H43.0241ZM39.4699 14.8872C41.4328 14.8872 43.0241 16.4785 43.0241 18.4414H47.9865C47.9865 13.7378 44.1735 9.9248 39.4699 9.9248V14.8872ZM35.9158 18.4414C35.9158 16.4785 37.507 14.8872 39.4699 14.8872V9.9248C34.7664 9.9248 30.9534 13.7378 30.9534 18.4414H35.9158ZM39.4699 21.9955C37.507 21.9955 35.9158 20.4043 35.9158 18.4414H30.9534C30.9534 23.1449 34.7664 26.9579 39.4699 26.9579V21.9955ZM24.2474 18.4414C24.2474 20.4043 22.6561 21.9955 20.6932 21.9955V26.9579C25.3968 26.9579 29.2098 23.1449 29.2098 18.4414H24.2474ZM20.6932 14.8872C22.6561 14.8872 24.2474 16.4785 24.2474 18.4414H29.2098C29.2098 13.7378 25.3968 9.9248 20.6932 9.9248V14.8872ZM17.1391 18.4414C17.1391 16.4785 18.7303 14.8872 20.6932 14.8872V9.9248C15.9897 9.9248 12.1767 13.7378 12.1767 18.4414H17.1391ZM20.6932 21.9955C18.7303 21.9955 17.1391 20.4043 17.1391 18.4414H12.1767C12.1767 23.1449 15.9897 26.9579 20.6932 26.9579V21.9955ZM58.2466 26.9579C62.9502 26.9579 66.7632 23.1449 66.7632 18.4414H61.8007C61.8007 20.4043 60.2095 21.9955 58.2466 21.9955V26.9579ZM49.73 18.4414C49.73 23.1449 53.543 26.9579 58.2466 26.9579V21.9955C56.2837 21.9955 54.6924 20.4043 54.6924 18.4414H49.73ZM58.2466 9.9248C53.543 9.9248 49.73 13.7378 49.73 18.4414H54.6924C54.6924 16.4785 56.2837 14.8872 58.2466 14.8872V9.9248ZM66.7632 18.4414C66.7632 13.7378 62.9502 9.9248 58.2466 9.9248V14.8872C60.2095 14.8872 61.8007 16.4785 61.8007 18.4414H66.7632Z" fill="url(#paint2_linear_335_599)" mask="url(#path-2-inside-1_335_599)"/>
<path fill-rule="evenodd" clip-rule="evenodd" d="M129.62 194.361L162.703 56.2406H184.207L150.76 194.361H129.62ZM197.44 170.376V147.664L252.845 125.514L197.44 103.604V81.0526L276.838 115.963V135.224L197.44 170.376ZM36.1616 135.336L116.387 170.376V147.684L60.4289 125.394L116.387 103.905V81.0526L36.1616 115.932V135.336Z" fill="url(#paint3_linear_335_599)"/>
<defs>
<linearGradient id="paint0_linear_335_599" x1="-0.407337" y1="219.385" x2="206.771" y2="-74.2486" gradientUnits="userSpaceOnUse">
<stop stop-color="#F42929"/>
<stop offset="0.494792" stop-color="#FF8A3F"/>
<stop offset="1" stop-color="#E5E938"/>
</linearGradient>
<linearGradient id="paint1_linear_335_599" x1="-0.407337" y1="35.0522" x2="7.41501" y2="-34.3368" gradientUnits="userSpaceOnUse">
<stop stop-color="#F42929"/>
<stop offset="0.494792" stop-color="#FF8A3F"/>
<stop offset="1" stop-color="#E5E938"/>
</linearGradient>
<linearGradient id="paint2_linear_335_599" x1="-0.407337" y1="35.0522" x2="7.41501" y2="-34.3368" gradientUnits="userSpaceOnUse">
<stop stop-color="#F42929"/>
<stop offset="0.494792" stop-color="#FF8A3F"/>
<stop offset="1" stop-color="#E5E938"/>
</linearGradient>
<linearGradient id="paint3_linear_335_599" x1="35.3858" y1="193.975" x2="154.589" y2="-13.7394" gradientUnits="userSpaceOnUse">
<stop stop-color="#F42929"/>
<stop offset="0.494792" stop-color="#FF8A3F"/>
<stop offset="1" stop-color="#E5E938"/>
</linearGradient>
</defs>
</svg>
