<svg width="417" height="272" viewBox="0 0 417 272" fill="none" xmlns="http://www.w3.org/2000/svg">
<path fill-rule="evenodd" clip-rule="evenodd" d="M51.574 54.0106H10.5793C4.73654 54.0106 3.05176e-05 58.7471 3.05176e-05 64.5899V98.9726C3.05176e-05 104.815 4.73654 109.552 10.5793 109.552H51.574V54.0106Z" fill="url(#paint0_linear_335_600)"/>
<path fill-rule="evenodd" clip-rule="evenodd" d="M31.1848 88.2766C30.8762 89.4211 30.4926 90.4442 30.0571 91.3152C28.8263 93.7767 27.6154 94.2923 27.0642 94.2923C26.5131 94.2923 25.3022 93.7767 24.0714 91.3152C23.6359 90.4442 23.2523 89.4211 22.9437 88.2766L31.1848 88.2766ZM33.913 88.2766C33.4553 90.2032 32.8005 91.9061 32.0005 93.2808C34.4007 92.2492 36.4133 90.4881 37.7593 88.2766H33.913ZM38.9716 85.6318H34.3955C34.5565 84.4022 34.6422 83.1117 34.6422 81.7811C34.6422 81.046 34.6161 80.3232 34.5655 79.6161H39.3887C39.5114 80.3193 39.5754 81.0428 39.5754 81.7812C39.5754 83.1247 39.3636 84.4188 38.9716 85.6318ZM31.7257 85.6318L22.4028 85.6318C22.2277 84.4253 22.1311 83.1336 22.1311 81.7811C22.1311 81.0398 22.1601 80.3168 22.2152 79.6161H31.9133C31.9684 80.3168 31.9974 81.0398 31.9974 81.7811C31.9974 83.1336 31.9008 84.4253 31.7257 85.6318ZM19.733 85.6318C19.572 84.4022 19.4863 83.1117 19.4863 81.7811C19.4863 81.046 19.5124 80.3232 19.563 79.6161H14.7398C14.6171 80.3193 14.5531 81.0428 14.5531 81.7812C14.5531 83.1247 14.7649 84.4188 15.1568 85.6318H19.733ZM16.3692 88.2766C17.7152 90.4881 19.7278 92.2492 22.128 93.2808C21.328 91.9061 20.6731 90.2032 20.2155 88.2766H16.3692ZM30.0571 72.247C30.6966 73.5261 31.2242 75.1332 31.567 76.9712H22.5615C22.9043 75.1332 23.4319 73.5261 24.0714 72.247C25.2935 69.8029 26.496 69.2774 27.0524 69.2701L27.0642 69.2701L27.076 69.2701C27.6325 69.2774 28.835 69.8029 30.0571 72.247ZM34.2526 76.9712H38.6174C37.3672 73.972 34.9832 71.5636 32.0006 70.2816C33.0267 72.0451 33.8141 74.3484 34.2526 76.9712ZM15.5111 76.9712H19.8758C20.3144 74.3484 21.1018 72.0451 22.1278 70.2816C19.1453 71.5636 16.7613 73.972 15.5111 76.9712ZM27.0369 66.6253C18.6791 66.64 11.9083 73.4199 11.9083 81.7812C11.9083 90.1516 18.6938 96.9372 27.0642 96.9372C35.4346 96.9372 42.2202 90.1516 42.2202 81.7812C42.2202 73.4199 35.4494 66.64 27.0916 66.6253L27.0642 66.6252L27.0369 66.6253Z" fill="#12142A"/>
<path d="M61.4766 91.7812H64.4103V83.4558C64.4103 81.619 65.4146 80.1521 67.4894 80.1521C69.2337 80.1521 70.5288 81.1564 70.5288 83.403V91.7812H73.4493V82.8083C73.4493 79.3988 71.3878 77.6016 68.5466 77.6016C66.2604 77.6016 64.9917 78.8438 64.516 79.7689H64.4103V72.7914H61.4766V91.7812ZM77.916 77.8131H75.9469V80.1653H77.8763V87.8564C77.8763 90.658 78.8146 91.8738 82.2108 91.8738C82.8055 91.8738 83.3605 91.8209 83.5984 91.7812V89.5347C83.4266 89.5611 83.1887 89.5611 82.9376 89.5611C81.3651 89.5611 80.7968 89.1383 80.7968 87.6185V80.1653H83.5191V77.8131H80.7968V74.4168H77.916V77.8131ZM87.8272 77.8131H85.8581V80.1653H87.7875V87.8564C87.7875 90.658 88.7258 91.8738 92.122 91.8738C92.7167 91.8738 93.2717 91.8209 93.5096 91.7812V89.5347C93.3378 89.5611 93.0999 89.5611 92.8488 89.5611C91.2763 89.5611 90.708 89.1383 90.708 87.6185V80.1653H93.4303V77.8131H90.708V74.4168H87.8272V77.8131ZM103.659 91.9795C106.883 91.9795 109.09 89.5611 109.09 85.4116V84.1694C109.09 79.9935 106.857 77.628 103.725 77.628C101.848 77.628 100.421 78.5267 99.6545 79.8614H99.5488V77.8131H96.6944V96.4197H99.6281V89.8387H99.7338C100.474 91.1205 101.848 91.9795 103.659 91.9795ZM102.985 89.5611C100.897 89.5611 99.6017 87.8961 99.6017 85.2531V84.2619C99.6017 81.685 100.884 80.0199 102.932 80.0199C104.927 80.0199 106.117 81.5661 106.117 84.2752V85.2531C106.117 88.0678 104.848 89.5611 102.985 89.5611ZM112.182 90.2351C112.182 91.2394 112.988 92.0588 113.993 92.0588C114.984 92.0588 115.803 91.2394 115.803 90.2351C115.803 89.244 114.984 88.4247 113.993 88.4247C112.988 88.4247 112.182 89.244 112.182 90.2351ZM112.182 81.0771C112.182 82.0683 112.988 82.8876 113.993 82.8876C114.984 82.8876 115.803 82.0683 115.803 81.0771C115.803 80.086 114.984 79.2667 113.993 79.2667C112.988 79.2667 112.182 80.086 112.182 81.0771ZM120.362 95.8911L126.877 72.7914H124.181L117.68 95.8911H120.362ZM129.639 95.8911L136.154 72.7914H133.458L126.957 95.8911H129.639ZM155.726 77.8131H152.779L150.479 88.4643H150.36L147.479 77.8131H144.704L141.837 88.4643H141.704L139.405 77.8131H136.445L140.053 91.7812H143.132L146.039 81.4736H146.132L149.039 91.7812H152.105L155.726 77.8131ZM176.579 77.8131H173.632L171.332 88.4643H171.213L168.333 77.8131H165.557L162.69 88.4643H162.558L160.258 77.8131H157.298L160.906 91.7812H163.985L166.892 81.4736H166.985L169.892 91.7812H172.958L176.579 77.8131ZM197.432 77.8131H194.485L192.186 88.4643H192.067L189.186 77.8131H186.411L183.543 88.4643H183.411L181.111 77.8131H178.151L181.759 91.7812H184.838L187.745 81.4736H187.838L190.745 91.7812H193.811L197.432 77.8131ZM197.868 90.2351C197.868 91.2394 198.674 92.0588 199.678 92.0588C200.67 92.0588 201.489 91.2394 201.489 90.2351C201.489 89.244 200.67 88.4247 199.678 88.4247C198.674 88.4247 197.868 89.244 197.868 90.2351ZM204.991 91.7812H207.925V72.7914H204.991V91.7812ZM217.4 77.5752C213.382 77.5752 211.175 80.4164 211.175 84.2091V85.3324C211.175 89.2704 213.369 92.0191 217.4 92.0191C221.43 92.0191 223.598 89.2704 223.598 85.3324V84.2091C223.598 80.4032 221.417 77.5752 217.4 77.5752ZM217.4 79.9274C219.58 79.9274 220.651 81.6982 220.651 84.2487V85.3191C220.651 87.83 219.593 89.6536 217.4 89.6536C215.206 89.6536 214.136 87.8168 214.136 85.3191V84.2487C214.136 81.7115 215.219 79.9274 217.4 79.9274ZM232.438 77.5752C228.421 77.5752 226.214 80.4164 226.214 84.2091V85.3324C226.214 89.2704 228.408 92.0191 232.438 92.0191C236.469 92.0191 238.636 89.2704 238.636 85.3324V84.2091C238.636 80.4032 236.456 77.5752 232.438 77.5752ZM232.438 79.9274C234.619 79.9274 235.689 81.6982 235.689 84.2487V85.3191C235.689 87.83 234.632 89.6536 232.438 89.6536C230.245 89.6536 229.174 87.8168 229.174 85.3191V84.2487C229.174 81.7115 230.258 79.9274 232.438 79.9274ZM247.477 77.5752C243.46 77.5752 241.253 80.4164 241.253 84.2091V85.3324C241.253 89.2704 243.446 92.0191 247.477 92.0191C251.507 92.0191 253.675 89.2704 253.675 85.3324V84.2091C253.675 80.4032 251.494 77.5752 247.477 77.5752ZM247.477 79.9274C249.657 79.9274 250.728 81.6982 250.728 84.2487V85.3191C250.728 87.83 249.671 89.6536 247.477 89.6536C245.283 89.6536 244.213 87.8168 244.213 85.3191V84.2487C244.213 81.7115 245.296 79.9274 247.477 79.9274ZM262.516 77.5752C258.498 77.5752 256.291 80.4164 256.291 84.2091V85.3324C256.291 89.2704 258.485 92.0191 262.516 92.0191C266.546 92.0191 268.713 89.2704 268.713 85.3324V84.2091C268.713 80.4032 266.533 77.5752 262.516 77.5752ZM262.516 79.9274C264.696 79.9274 265.766 81.6982 265.766 84.2487V85.3191C265.766 87.83 264.709 89.6536 262.516 89.6536C260.322 89.6536 259.251 87.8168 259.251 85.3191V84.2487C259.251 81.7115 260.335 79.9274 262.516 79.9274ZM271.898 91.7812H274.819V83.4558C274.819 81.619 275.823 80.1521 277.885 80.1521C279.629 80.1521 280.924 81.1564 280.924 83.403V91.7812H283.844V82.8083C283.844 79.3988 281.796 77.6016 278.942 77.6016C276.642 77.6016 275.36 78.8438 274.885 79.7689H274.779V77.8131H271.898V91.7812ZM293.082 94.6357C291.39 94.6357 290.293 93.7767 290.055 92.7327H287.148C287.413 95.0586 289.249 96.8954 293.055 96.8954C296.214 96.8954 299.28 95.2832 299.28 91.5698V77.8131H296.412V79.8349H296.306C295.711 78.6059 294.205 77.628 292.289 77.628C289.064 77.628 286.844 79.9274 286.844 84.1034V85.1077C286.844 89.3365 289.078 91.6227 292.289 91.6227C294.218 91.6227 295.711 90.6315 296.253 89.4158H296.359V91.4377C296.359 93.4595 295.104 94.6357 293.082 94.6357ZM293.148 80.0199C295.09 80.0199 296.359 81.619 296.359 84.2487V85.0813C296.359 87.7507 295.156 89.3101 293.148 89.3101C291.06 89.3101 289.831 87.7507 289.831 85.0813V84.2487C289.831 81.5265 291.06 80.0199 293.148 80.0199ZM302.742 90.2351C302.742 91.2394 303.548 92.0588 304.552 92.0588C305.543 92.0588 306.363 91.2394 306.363 90.2351C306.363 89.244 305.543 88.4247 304.552 88.4247C303.548 88.4247 302.742 89.244 302.742 90.2351ZM321.084 77.8131H318.15V86.2574C318.15 88.3321 316.855 89.4554 315.098 89.4554C313.525 89.4554 312.124 88.7418 312.124 86.297V77.8131H309.191V87.1032C309.191 90.3408 311.173 91.9927 314.041 91.9927C316.314 91.9927 317.609 90.9355 318.071 89.8387H318.203V91.7812H321.084V77.8131ZM324.811 91.7812H327.784V83.5087C327.784 81.6322 328.577 80.1785 330.929 80.1785C331.418 80.1785 331.934 80.2182 332.185 80.2842V77.6941C331.907 77.6413 331.577 77.6148 331.194 77.6148C329.251 77.6148 328.207 78.7777 327.85 79.6499H327.745V77.8131H324.811V91.7812ZM335 91.7812H337.933V72.7914H335V91.7812Z" fill="url(#paint1_linear_335_600)"/>
<rect x="1.32244" y="55.333" width="414.355" height="52.8964" rx="9.25687" stroke="url(#paint2_linear_335_600)" stroke-width="2.64482"/>
<path fill-rule="evenodd" clip-rule="evenodd" d="M156.07 0.232672C142.583 11.2707 139.029 33.2169 148.473 48.9835L151.229 54.0106H185.926L156.07 0.232672ZM210.819 162.707L181.678 109.552H216.762L229.219 131.99L302.37 0.232666C315.857 11.2706 319.414 33.2169 309.967 48.9835L247.617 162.704L265.279 192.183C281.493 181.21 302.475 186.372 313.422 204.645C324.98 223.94 320.969 250.533 304.457 264.048C287.948 277.556 265.196 272.871 253.634 253.572C245.703 240.328 245.108 223.648 250.846 210.122L229.219 174.018L207.589 210.125C213.331 223.652 212.736 240.333 204.802 253.576C193.24 272.875 170.485 277.559 153.976 264.051C137.467 250.536 133.456 223.946 145.014 204.647C155.961 186.372 176.943 181.209 193.157 192.186L210.819 162.707ZM193.906 229.018C193.906 241.229 185.436 251.129 174.988 251.129C164.54 251.129 156.07 241.228 156.07 229.018C156.07 216.803 164.54 206.906 174.988 206.906C185.436 206.906 193.906 216.803 193.906 229.018ZM302.37 229.018C302.37 241.229 293.899 251.129 283.452 251.129C273.004 251.129 264.534 241.229 264.534 229.018C264.534 216.803 273.004 206.906 283.452 206.906C293.899 206.906 302.37 216.803 302.37 229.018ZM229.218 158.04C231.652 158.04 233.626 156.067 233.626 153.632C233.626 151.198 231.652 149.224 229.218 149.224C226.783 149.224 224.81 151.198 224.81 153.632C224.81 156.067 226.783 158.04 229.218 158.04Z" fill="url(#paint3_linear_335_600)"/>
<defs>
<linearGradient id="paint0_linear_335_600" x1="-1.34411" y1="109.397" x2="13.1871" y2="0.296929" gradientUnits="userSpaceOnUse">
<stop stop-color="#F42929"/>
<stop offset="0.494792" stop-color="#FF8A3F"/>
<stop offset="1" stop-color="#E5E938"/>
</linearGradient>
<linearGradient id="paint1_linear_335_600" x1="58.6678" y1="100.675" x2="68.7565" y2="26.0717" gradientUnits="userSpaceOnUse">
<stop stop-color="#F42929"/>
<stop offset="0.494792" stop-color="#FF8A3F"/>
<stop offset="1" stop-color="#E5E938"/>
</linearGradient>
<linearGradient id="paint2_linear_335_600" x1="-1.34411" y1="109.397" x2="13.1871" y2="0.296929" gradientUnits="userSpaceOnUse">
<stop stop-color="#F42929"/>
<stop offset="0.494792" stop-color="#FF8A3F"/>
<stop offset="1" stop-color="#E5E938"/>
</linearGradient>
<linearGradient id="paint3_linear_335_600" x1="137.827" y1="271.009" x2="388.679" y2="103.23" gradientUnits="userSpaceOnUse">
<stop stop-color="#F42929"/>
<stop offset="0.494792" stop-color="#FF8A3F"/>
<stop offset="1" stop-color="#E5E938"/>
</linearGradient>
</defs>
</svg>
