<svg width="452" height="238" viewBox="0 0 452 238" fill="none" xmlns="http://www.w3.org/2000/svg">
<mask id="mask0_146_1830" style="mask-type:alpha" maskUnits="userSpaceOnUse" x="39" y="26" width="375" height="84">
<path fill-rule="evenodd" clip-rule="evenodd" d="M233.623 41.6304C233.851 43.7947 249.098 46.5633 256.692 47.677C258.478 49.305 253.64 51.6312 250.264 53.2543C249.063 53.8314 248.048 54.3198 247.581 54.6561C246.504 55.4315 247.276 61.1255 247.963 66.1957C248.185 67.831 248.398 69.4015 248.537 70.7211C248.847 72.0704 249.196 73.8576 249.571 75.7807C250.671 81.4156 251.998 88.2182 253.251 88.5963C253.801 88.7626 254.921 88.8942 256.244 89.0499C259.964 89.4875 265.296 90.1146 264.136 92.2347C257.316 95.7565 243.797 103.33 244.285 105.451C244.894 108.103 275.622 112.177 282.744 105.516C285.387 103.043 287.798 99.8938 290.171 96.7929C292.118 94.2492 294.04 91.7382 296.045 89.6604C291.606 89.3658 287.216 89.3483 283.071 89.7231C267.875 91.097 286.162 86.5796 306.853 84.1907C308.433 83.9284 310.389 83.6246 312.657 83.2723C336.037 79.6406 392.555 70.8614 411.462 49.3516C414.255 46.174 413.456 41.3903 409.796 39.2688C384.97 24.8801 329.369 34.3159 306.696 38.1636C301.952 38.9687 298.65 39.5291 297.373 39.5754C292.403 39.7555 287.038 36.191 281.527 32.5293C278.275 30.3683 274.971 28.1734 271.668 26.6944C262.767 22.7093 233.338 38.9249 233.623 41.6304ZM343.127 38.6342C361.816 39.0803 384.693 48.2961 393.795 52.8482C401.37 50.5474 412.792 44.6043 397.877 39.2389C379.233 32.532 319.767 38.0766 343.127 38.6342Z" fill="white"/>
<path d="M244.235 83.6954C241.52 74.9448 241.863 66.6016 240.137 60.128L230.008 59.4962L39.3711 106.026L233.042 87.7719L244.235 83.6954Z" fill="white"/>
</mask>
<g mask="url(#mask0_146_1830)">
<g filter="url(#filter0_f_146_1830)">
<rect x="162.77" y="-236.337" width="547.986" height="343.159" transform="rotate(35.516 162.77 -236.337)" fill="url(#paint0_radial_146_1830)"/>
</g>
<g filter="url(#filter1_f_146_1830)">
<rect x="444.354" y="-279.033" width="189.984" height="339.113" transform="rotate(35.516 444.354 -279.033)" fill="url(#paint1_radial_146_1830)"/>
</g>
</g>
<path d="M80.6392 205.868C80.6392 208.153 80.4393 210.095 80.0394 211.695C79.6395 213.237 78.8398 214.494 77.6401 215.465C76.4976 216.436 74.8981 217.15 72.8416 217.607C70.8422 218.007 68.2144 218.207 64.9582 218.207H25.0274V208.182H63.3301C65.0439 208.182 66.2436 207.896 66.9291 207.325C67.6146 206.754 67.9573 205.668 67.9573 204.069V202.526C67.9573 200.812 67.6146 199.756 66.9291 199.356C66.3007 198.899 65.2153 198.67 63.6729 198.67H37.6236C34.9958 198.67 32.8536 198.413 31.1969 197.899C29.5974 197.385 28.3407 196.614 27.4266 195.585C26.5126 194.557 25.8842 193.3 25.5415 191.815C25.2559 190.273 25.1131 188.473 25.1131 186.417V182.904C25.1131 180.904 25.313 179.19 25.7129 177.762C26.1699 176.334 26.8839 175.192 27.8551 174.335C28.8262 173.421 30.1401 172.764 31.7968 172.364C33.4534 171.964 35.5385 171.764 38.052 171.764H55.7039V181.447H41.1368C39.88 181.447 38.966 181.675 38.3948 182.132C37.8806 182.589 37.6236 183.418 37.6236 184.617V186.76C37.6236 188.073 37.8806 188.959 38.3948 189.416C38.9089 189.873 39.7372 190.101 40.8797 190.101H66.0722C69.0427 190.101 71.4706 190.358 73.3557 190.873C75.2409 191.33 76.7261 192.101 77.8115 193.186C78.8969 194.214 79.6395 195.585 80.0394 197.299C80.4393 198.956 80.6392 201.012 80.6392 203.469V205.868ZM144.332 218.207V192.329C144.332 190.387 144.161 188.788 143.818 187.531C143.532 186.274 143.018 185.303 142.275 184.617C141.533 183.875 140.505 183.389 139.191 183.161C137.877 182.875 136.249 182.732 134.306 182.732H108.857V218.207H96.0893V156.769H108.857V171.764H134.649C138.991 171.764 142.59 172.135 145.446 172.878C148.359 173.564 150.673 174.706 152.387 176.306C154.1 177.848 155.3 179.904 155.986 182.475C156.728 185.046 157.1 188.188 157.1 191.901V218.207H144.332ZM195.843 218.207C191.559 218.207 187.989 217.865 185.132 217.179C182.276 216.436 179.991 215.294 178.277 213.751C176.564 212.152 175.335 210.095 174.593 207.582C173.907 205.011 173.564 201.869 173.564 198.156V171.764H186.418V197.813C186.418 199.813 186.589 201.441 186.932 202.698C187.332 203.897 187.932 204.84 188.731 205.525C189.531 206.211 190.588 206.696 191.902 206.982C193.273 207.211 194.929 207.325 196.872 207.325H210.239C212.296 207.325 214.009 207.211 215.38 206.982C216.751 206.696 217.808 206.211 218.551 205.525C219.351 204.84 219.893 203.897 220.179 202.698C220.522 201.441 220.693 199.813 220.693 197.813V171.764H233.375V198.156C233.375 201.869 233.004 205.011 232.261 207.582C231.576 210.095 230.376 212.152 228.662 213.751C226.948 215.294 224.635 216.436 221.721 217.179C218.865 217.865 215.266 218.207 210.925 218.207H195.843ZM252.704 218.207V182.132H246.192V171.764H252.704V158.654H265.729V171.764H280.381V182.132H265.729V218.207H252.704ZM296.044 218.207V182.132H289.531V171.764H296.044V158.654H309.068V171.764H323.721V182.132H309.068V218.207H296.044ZM336.727 218.207V156.769H349.751V218.207H336.727ZM379.017 199.699V201.841C379.017 203.269 379.131 204.411 379.36 205.268C379.588 206.125 379.988 206.811 380.559 207.325C381.188 207.782 381.987 208.096 382.958 208.267C383.987 208.439 385.244 208.524 386.729 208.524H401.81V218.207H386.729C379.36 218.207 374.104 216.808 370.962 214.009C367.82 211.209 366.249 206.725 366.249 200.555V189.844C366.249 186.474 366.563 183.646 367.192 181.361C367.877 179.019 369.02 177.162 370.619 175.791C372.276 174.363 374.447 173.335 377.132 172.707C379.817 172.078 383.216 171.764 387.329 171.764H409.779C413.092 171.764 415.834 172.078 418.005 172.707C420.233 173.335 421.975 174.22 423.232 175.363C424.546 176.448 425.46 177.791 425.974 179.39C426.488 180.933 426.745 182.618 426.745 184.446V199.699H379.017ZM413.978 185.474C413.978 183.932 413.578 182.904 412.778 182.389C412.035 181.875 410.693 181.618 408.751 181.618H387.5C385.9 181.618 384.558 181.704 383.473 181.875C382.387 181.99 381.502 182.304 380.816 182.818C380.188 183.332 379.731 184.075 379.445 185.046C379.16 186.017 379.017 187.331 379.017 188.987V191.472H413.978V185.474Z" fill="#F25100"/>
<defs>
<filter id="filter0_f_146_1830" x="-95.9521" y="-295.707" width="764.127" height="716.397" filterUnits="userSpaceOnUse" color-interpolation-filters="sRGB">
<feFlood flood-opacity="0" result="BackgroundImageFix"/>
<feBlend mode="normal" in="SourceGraphic" in2="BackgroundImageFix" result="shape"/>
<feGaussianBlur stdDeviation="29.685" result="effect1_foregroundBlur_146_1830"/>
</filter>
<filter id="filter1_f_146_1830" x="187.983" y="-338.403" width="470.379" height="505.13" filterUnits="userSpaceOnUse" color-interpolation-filters="sRGB">
<feFlood flood-opacity="0" result="BackgroundImageFix"/>
<feBlend mode="normal" in="SourceGraphic" in2="BackgroundImageFix" result="shape"/>
<feGaussianBlur stdDeviation="29.685" result="effect1_foregroundBlur_146_1830"/>
</filter>
<radialGradient id="paint0_radial_146_1830" cx="0" cy="0" r="1" gradientUnits="userSpaceOnUse" gradientTransform="translate(413.696 -82.4901) rotate(65.1372) scale(507.102 470.504)">
<stop stop-color="#FF8D24"/>
<stop offset="0.239583" stop-color="#F42929"/>
</radialGradient>
<radialGradient id="paint1_radial_146_1830" cx="0" cy="0" r="1" gradientUnits="userSpaceOnUse" gradientTransform="translate(571.955 -127.033) rotate(87.2705) scale(222.433 86.496)">
<stop stop-color="#FFC700"/>
<stop offset="1" stop-color="#E5E938"/>
</radialGradient>
</defs>
</svg>
